<svg width="351" height="67" viewBox="0 0 351 67" fill="none" xmlns="http://www.w3.org/2000/svg">
<path d="M102.794 20.5261V22.2433C102.794 27.1838 101.283 30.3419 97.9193 31.9226C101.966 33.5 103.545 37.1264 103.545 42.2165V46.1194C103.545 53.5349 99.6451 57.5029 92.0888 57.5029H80.2263V9.4743H91.6013C99.4306 9.4743 102.794 13.1138 102.794 20.5261ZM87.7696 16.3402V29.0246H90.7206C93.5318 29.0246 95.2478 27.7887 95.2478 23.9444V21.2806C95.2478 17.8493 94.0811 16.3402 91.4063 16.3402H87.7696ZM87.7696 35.9035V50.6598H92.0921C94.6303 50.6598 95.9921 49.4954 95.9921 45.9243V41.7384C95.9921 37.2761 94.5523 35.9035 91.1171 35.9035H87.7696Z" fill="#24356C"/>
<path d="M132.493 57.5257H124.878L123.578 48.8092H114.315L113.015 57.5257H106.083L113.766 9.4743H124.816L132.493 57.5257ZM115.268 42.288H122.541L118.911 17.9859L115.268 42.288Z" fill="#24356C"/>
<path d="M133.796 9.4743H157.118V16.3402H149.227V57.5257H141.7V16.3402H133.796V9.4743Z" fill="#24356C"/>
<path d="M182.289 39.6081V45.9926C182.289 53.6813 178.448 58.0754 171.041 58.0754C163.634 58.0754 159.79 53.6813 159.79 45.9926V21.0074C159.79 13.3187 163.631 8.92468 171.041 8.92468C178.451 8.92468 182.289 13.335 182.289 21.0074V25.6747H175.156V20.5261C175.156 17.0948 173.648 15.7906 171.256 15.7906C168.864 15.7906 167.356 17.0915 167.356 20.5261V46.4739C167.356 49.9053 168.864 51.1412 171.256 51.1412C173.648 51.1412 175.156 49.9053 175.156 46.4739V39.6081H182.289Z" fill="#24356C"/>
<path d="M194.431 57.5257H186.875V9.4743H194.421V30.0687H202.995V9.4743H210.675V57.5257H203.005V36.9313H194.431V57.5257Z" fill="#24356C"/>
<path d="M216.174 9.4743H223.717V50.6598H236.132V57.5257H216.174V9.4743Z" fill="#3683BC"/>
<path d="M246.971 29.7239H257.329V36.5898H246.971V50.6598H260V57.5257H239.424V9.4743H260V16.3402H246.968L246.971 29.7239Z" fill="#3683BC"/>
<path d="M289.084 57.5257H281.473L280.173 48.8092H270.91L269.61 57.5257H262.678L270.361 9.4743H281.411L289.084 57.5257ZM271.859 42.288H279.129L275.502 17.9859L271.859 42.288Z" fill="#3683BC"/>
<path d="M292.581 9.4743H304.525C312.068 9.4743 315.773 13.6602 315.773 21.3489V45.6511C315.773 53.3365 312.068 57.5257 304.525 57.5257H292.581V9.4743ZM300.128 16.3402V50.6598H304.382C306.781 50.6598 308.224 49.4271 308.224 45.9926V21.0074C308.224 17.5728 306.781 16.3402 304.382 16.3402H300.128Z" fill="#3683BC"/>
<path d="M330.72 8.92468C338.059 8.92468 341.832 13.3187 341.832 21.0074V22.5166H334.682V20.5261C334.682 17.0948 333.31 15.7906 330.909 15.7906C328.507 15.7906 327.135 17.0915 327.135 20.5261C327.135 30.4102 341.884 32.2641 341.884 45.9926C341.884 53.6813 338.042 58.0754 330.636 58.0754C323.229 58.0754 319.384 53.6813 319.384 45.9926V43.0426H326.534V46.4739C326.534 49.9053 328.045 51.1412 330.434 51.1412C332.823 51.1412 334.334 49.9053 334.334 46.4739C334.334 36.5898 319.589 34.7359 319.589 21.0074C319.608 13.335 323.375 8.92468 330.72 8.92468Z" fill="#3683BC"/>
<path d="M37.128 10.0825C48.0903 10.0825 53.7291 14.6587 53.7291 21.4888C53.7279 22.1162 53.678 22.7425 53.5796 23.3622C54.3321 21.566 54.7188 19.6376 54.7171 17.6899C54.7171 13.8082 53.1762 10.0855 50.4335 7.34078C47.6908 4.59601 43.9708 3.05402 40.0921 3.05402H6.17505V32.3259H15.7073V10.0825H37.128Z" fill="#24356C"/>
<path d="M43.5175 22.8711C43.5175 19.4235 40.8233 17.7322 35.8768 17.7322H25.8018V28.075H35.8768C40.8233 28.075 43.5175 26.3187 43.5175 22.8711Z" fill="#24356C"/>
<path d="M45.7112 40.9253C45.7112 37.2273 42.8902 35.4709 37.6285 35.4709H25.792V46.3178H37.6285C42.9 46.3178 45.7112 44.6851 45.7112 40.9253Z" fill="#3683BC"/>
<path d="M50.6544 32.3779C53.9304 34.3294 55.9194 37.5818 55.9194 41.9921C55.9194 49.5768 49.9069 53.9643 38.3694 53.9643H16.1101V63.9395H49.4519C51.5259 63.9399 53.5798 63.5315 55.4961 62.7374C57.4124 61.9434 59.1537 60.7794 60.6204 59.3119C62.0872 57.8443 63.2507 56.102 64.0445 54.1844C64.8383 52.2669 65.2469 50.2116 65.2469 48.1359C65.2461 44.1525 63.7426 40.3163 61.037 37.3946C58.3314 34.4729 54.6232 32.6812 50.6544 32.3779Z" fill="#3683BC"/>
</svg>
